<?xml version="1.0" encoding="UTF-8" standalone="no"?>
<!DOCTYPE svg PUBLIC "-//W3C//DTD SVG 1.1//EN"
 "http://www.w3.org/Graphics/SVG/1.1/DTD/svg11.dtd">
<!-- Generated by graphviz version 2.26.3 (20100126.1600)
 -->
<!-- Title: defaultName Pages: 1 -->
<svg width="1486pt" height="1344pt"
 viewBox="0.00 0.00 1486.00 1344.00" xmlns="http://www.w3.org/2000/svg" xmlns:xlink="http://www.w3.org/1999/xlink">
<g id="graph1" class="graph" transform="scale(1 1) rotate(0) translate(4 1340)">
<title>defaultName</title>
<polygon fill="white" stroke="white" points="-4,5 -4,-1340 1483,-1340 1483,5 -4,5"/>
<!-- n_2b9a80e72040_0 -->
<g id="node1" class="node"><title>n_2b9a80e72040_0</title>
<ellipse fill="none" stroke="blue" cx="739" cy="-1305" rx="251.937" ry="31.1127"/>
<text text-anchor="middle" x="739" y="-1310.4" font-family="Times Roman,serif" font-size="14.00">Start(HelloWorld.main)</text>
<text text-anchor="middle" x="739" y="-1292.4" font-family="Times Roman,serif" font-size="14.00">&lt;SgFunctionDefinition&gt; @line=9, col=22 :idx=0</text>
</g>
<!-- n_2b9a80b8a650_0 -->
<g id="node3" class="node"><title>n_2b9a80b8a650_0</title>
<ellipse fill="none" stroke="red" cx="739" cy="-1207" rx="253.851" ry="31.1127"/>
<text text-anchor="middle" x="739" y="-1212.4" font-family="Times Roman,serif" font-size="14.00">initialized_name_paramArrayOfString</text>
<text text-anchor="middle" x="739" y="-1194.4" font-family="Times Roman,serif" font-size="14.00">&lt;SgInitializedName&gt; paramArrayOfString :idx=0</text>
</g>
<!-- n_2b9a80e72040_0&#45;&gt;n_2b9a80b8a650_0 -->
<g id="edge2" class="edge"><title>n_2b9a80e72040_0&#45;&gt;n_2b9a80b8a650_0</title>
<path fill="none" stroke="black" d="M739,-1273.99C739,-1265.86 739,-1256.96 739,-1248.38"/>
<polygon fill="black" stroke="black" points="742.5,-1248.14 739,-1238.14 735.5,-1248.14 742.5,-1248.14"/>
</g>
<!-- n_2b9a80c68000_1 -->
<g id="node5" class="node"><title>n_2b9a80c68000_1</title>
<ellipse fill="none" stroke="blue" cx="739" cy="-1109" rx="272.943" ry="31.1127"/>
<text text-anchor="middle" x="739" y="-1114.4" font-family="Times Roman,serif" font-size="14.00">main_parameter_list_</text>
<text text-anchor="middle" x="739" y="-1096.4" font-family="Times Roman,serif" font-size="14.00">&lt;SgFunctionParameterList&gt; @line=9, col=36 :idx=1</text>
</g>
<!-- n_2b9a80b8a650_0&#45;&gt;n_2b9a80c68000_1 -->
<g id="edge4" class="edge"><title>n_2b9a80b8a650_0&#45;&gt;n_2b9a80c68000_1</title>
<path fill="none" stroke="black" d="M739,-1175.99C739,-1167.86 739,-1158.96 739,-1150.38"/>
<polygon fill="black" stroke="black" points="742.5,-1150.14 739,-1140.14 735.5,-1150.14 742.5,-1150.14"/>
</g>
<!-- n_2b9a80de6238_0 -->
<g id="node7" class="node"><title>n_2b9a80de6238_0</title>
<ellipse fill="none" stroke="blue" cx="739" cy="-1011" rx="241.123" ry="31.1127"/>
<text text-anchor="middle" x="739" y="-1016.4" font-family="Times Roman,serif" font-size="14.00">_ctor_list_main</text>
<text text-anchor="middle" x="739" y="-998.4" font-family="Times Roman,serif" font-size="14.00">&lt;SgCtorInitializerList&gt; @line=0, col=0 :idx=0</text>
</g>
<!-- n_2b9a80c68000_1&#45;&gt;n_2b9a80de6238_0 -->
<g id="edge6" class="edge"><title>n_2b9a80c68000_1&#45;&gt;n_2b9a80de6238_0</title>
<path fill="none" stroke="black" d="M739,-1077.99C739,-1069.86 739,-1060.96 739,-1052.38"/>
<polygon fill="black" stroke="black" points="742.5,-1052.14 739,-1042.14 735.5,-1052.14 742.5,-1052.14"/>
</g>
<!-- n_22dbfa0_0 -->
<g id="node9" class="node"><title>n_22dbfa0_0</title>
<ellipse fill="none" stroke="green" cx="739" cy="-913" rx="258.094" ry="31.1127"/>
<text text-anchor="middle" x="739" y="-918.4" font-family="Times Roman,serif" font-size="14.00">SgJavaTypeExpression_undef_name</text>
<text text-anchor="middle" x="739" y="-900.4" font-family="Times Roman,serif" font-size="14.00">&lt;SgJavaTypeExpression&gt; @line=11, col=5 :idx=0</text>
</g>
<!-- n_2b9a80de6238_0&#45;&gt;n_22dbfa0_0 -->
<g id="edge8" class="edge"><title>n_2b9a80de6238_0&#45;&gt;n_22dbfa0_0</title>
<path fill="none" stroke="black" d="M739,-979.992C739,-971.859 739,-962.959 739,-954.378"/>
<polygon fill="black" stroke="black" points="742.5,-954.142 739,-944.142 735.5,-954.142 742.5,-954.142"/>
</g>
<!-- n_22c2950_0 -->
<g id="node11" class="node"><title>n_22c2950_0</title>
<ellipse fill="none" stroke="green" cx="739" cy="-815" rx="212.839" ry="31.1127"/>
<text text-anchor="middle" x="739" y="-820.4" font-family="Times Roman,serif" font-size="14.00">var_ref_of_out</text>
<text text-anchor="middle" x="739" y="-802.4" font-family="Times Roman,serif" font-size="14.00">&lt;SgVarRefExp&gt; @line=11, col=5 :idx=0</text>
</g>
<!-- n_22dbfa0_0&#45;&gt;n_22c2950_0 -->
<g id="edge10" class="edge"><title>n_22dbfa0_0&#45;&gt;n_22c2950_0</title>
<path fill="none" stroke="black" d="M739,-881.992C739,-873.859 739,-864.959 739,-856.378"/>
<polygon fill="black" stroke="black" points="742.5,-856.142 739,-846.142 735.5,-856.142 742.5,-856.142"/>
</g>
<!-- n_22f1770_2 -->
<g id="node13" class="node"><title>n_22f1770_2</title>
<ellipse fill="none" stroke="green" cx="739" cy="-717" rx="393.858" ry="31.1127"/>
<text text-anchor="middle" x="739" y="-722.4" font-family="Times Roman,serif" font-size="14.00">_dot_exp_lhs_SgJavaTypeExpression_undef_name_dot_exp_rhs_var_ref_of_out</text>
<text text-anchor="middle" x="739" y="-704.4" font-family="Times Roman,serif" font-size="14.00">&lt;SgDotExp&gt; @line=0, col=0 :idx=2</text>
</g>
<!-- n_22c2950_0&#45;&gt;n_22f1770_2 -->
<g id="edge12" class="edge"><title>n_22c2950_0&#45;&gt;n_22f1770_2</title>
<path fill="none" stroke="black" d="M739,-783.992C739,-775.859 739,-766.959 739,-758.378"/>
<polygon fill="black" stroke="black" points="742.5,-758.142 739,-748.142 735.5,-758.142 742.5,-758.142"/>
</g>
<!-- n_23418e0_0 -->
<g id="node15" class="node"><title>n_23418e0_0</title>
<ellipse fill="none" stroke="green" cx="739" cy="-619" rx="270.822" ry="31.1127"/>
<text text-anchor="middle" x="739" y="-624.4" font-family="Times Roman,serif" font-size="14.00">member_function_ref_println</text>
<text text-anchor="middle" x="739" y="-606.4" font-family="Times Roman,serif" font-size="14.00">&lt;SgMemberFunctionRefExp&gt; @line=0, col=0 :idx=0</text>
</g>
<!-- n_22f1770_2&#45;&gt;n_23418e0_0 -->
<g id="edge14" class="edge"><title>n_22f1770_2&#45;&gt;n_23418e0_0</title>
<path fill="none" stroke="black" d="M739,-685.992C739,-677.859 739,-668.959 739,-660.378"/>
<polygon fill="black" stroke="black" points="742.5,-660.142 739,-650.142 735.5,-660.142 742.5,-660.142"/>
</g>
<!-- n_230cd00_1 -->
<g id="node17" class="node"><title>n_230cd00_1</title>
<ellipse fill="none" stroke="green" cx="739" cy="-521" rx="213.046" ry="31.1127"/>
<text text-anchor="middle" x="739" y="-526.4" font-family="Times Roman,serif" font-size="14.00">string_value_exp_Hello World!</text>
<text text-anchor="middle" x="739" y="-508.4" font-family="Times Roman,serif" font-size="14.00">&lt;SgStringVal&gt; @line=11, col=24 :idx=1</text>
</g>
<!-- n_23418e0_0&#45;&gt;n_230cd00_1 -->
<g id="edge16" class="edge"><title>n_23418e0_0&#45;&gt;n_230cd00_1</title>
<path fill="none" stroke="black" d="M739,-587.992C739,-579.859 739,-570.959 739,-562.378"/>
<polygon fill="black" stroke="black" points="742.5,-562.142 739,-552.142 735.5,-562.142 742.5,-562.142"/>
</g>
<!-- n_2328290_1 -->
<g id="node19" class="node"><title>n_2328290_1</title>
<ellipse fill="none" stroke="green" cx="739" cy="-423" rx="229.81" ry="31.1127"/>
<text text-anchor="middle" x="739" y="-428.4" font-family="Times Roman,serif" font-size="14.00">expr_list_exp_string_value_exp_Hello World!</text>
<text text-anchor="middle" x="739" y="-410.4" font-family="Times Roman,serif" font-size="14.00">&lt;SgExprListExp&gt; @line=11, col=5 :idx=1</text>
</g>
<!-- n_230cd00_1&#45;&gt;n_2328290_1 -->
<g id="edge18" class="edge"><title>n_230cd00_1&#45;&gt;n_2328290_1</title>
<path fill="none" stroke="black" d="M739,-489.992C739,-481.859 739,-472.959 739,-464.378"/>
<polygon fill="black" stroke="black" points="742.5,-464.142 739,-454.142 735.5,-464.142 742.5,-464.142"/>
</g>
<!-- n_235edb0_3 -->
<g id="node21" class="node"><title>n_235edb0_3</title>
<ellipse fill="none" stroke="green" cx="739" cy="-325" rx="241.123" ry="31.1127"/>
<text text-anchor="middle" x="739" y="-330.4" font-family="Times Roman,serif" font-size="14.00">function_call_member_function_ref_println</text>
<text text-anchor="middle" x="739" y="-312.4" font-family="Times Roman,serif" font-size="14.00">&lt;SgFunctionCallExp&gt; @line=11, col=5 :idx=3</text>
</g>
<!-- n_2328290_1&#45;&gt;n_235edb0_3 -->
<g id="edge20" class="edge"><title>n_2328290_1&#45;&gt;n_235edb0_3</title>
<path fill="none" stroke="black" d="M739,-391.992C739,-383.859 739,-374.959 739,-366.378"/>
<polygon fill="black" stroke="black" points="742.5,-366.142 739,-356.142 735.5,-366.142 742.5,-366.142"/>
</g>
<!-- n_22f17e0_2 -->
<g id="node23" class="node"><title>n_22f17e0_2</title>
<ellipse fill="none" stroke="green" cx="739" cy="-227" rx="739.134" ry="31.1127"/>
<text text-anchor="middle" x="739" y="-232.4" font-family="Times Roman,serif" font-size="14.00">_dot_exp_lhs__dot_exp_lhs_SgJavaTypeExpression_undef_name_dot_exp_rhs_var_ref_of_out_dot_exp_rhs_function_call_member_function_ref_println</text>
<text text-anchor="middle" x="739" y="-214.4" font-family="Times Roman,serif" font-size="14.00">&lt;SgDotExp&gt; @line=11, col=5 :idx=2</text>
</g>
<!-- n_235edb0_3&#45;&gt;n_22f17e0_2 -->
<g id="edge22" class="edge"><title>n_235edb0_3&#45;&gt;n_22f17e0_2</title>
<path fill="none" stroke="black" d="M739,-293.992C739,-285.859 739,-276.959 739,-268.378"/>
<polygon fill="black" stroke="black" points="742.5,-268.142 739,-258.142 735.5,-268.142 742.5,-268.142"/>
</g>
<!-- n_237a340_1 -->
<g id="node25" class="node"><title>n_237a340_1</title>
<ellipse fill="none" stroke="blue" cx="739" cy="-129" rx="230.017" ry="31.1127"/>
<text text-anchor="middle" x="739" y="-134.4" font-family="Times Roman,serif" font-size="14.00">SgExprStatement</text>
<text text-anchor="middle" x="739" y="-116.4" font-family="Times Roman,serif" font-size="14.00">&lt;SgExprStatement&gt; @line=0, col=0 :idx=1</text>
</g>
<!-- n_22f17e0_2&#45;&gt;n_237a340_1 -->
<g id="edge24" class="edge"><title>n_22f17e0_2&#45;&gt;n_237a340_1</title>
<path fill="none" stroke="black" d="M739,-195.992C739,-187.859 739,-178.959 739,-170.378"/>
<polygon fill="black" stroke="black" points="742.5,-170.142 739,-160.142 735.5,-170.142 742.5,-170.142"/>
</g>
<!-- n_2b9a80e72040_3 -->
<g id="node27" class="node"><title>n_2b9a80e72040_3</title>
<ellipse fill="none" stroke="blue" cx="739" cy="-31" rx="251.937" ry="31.1127"/>
<text text-anchor="middle" x="739" y="-36.4" font-family="Times Roman,serif" font-size="14.00">End(HelloWorld.main)</text>
<text text-anchor="middle" x="739" y="-18.4" font-family="Times Roman,serif" font-size="14.00">&lt;SgFunctionDefinition&gt; @line=9, col=22 :idx=3</text>
</g>
<!-- n_237a340_1&#45;&gt;n_2b9a80e72040_3 -->
<g id="edge26" class="edge"><title>n_237a340_1&#45;&gt;n_2b9a80e72040_3</title>
<path fill="none" stroke="black" d="M739,-97.9922C739,-89.8594 739,-80.9587 739,-72.3777"/>
<polygon fill="black" stroke="black" points="742.5,-72.1424 739,-62.1425 735.5,-72.1425 742.5,-72.1424"/>
</g>
</g>
</svg>
